<svg width="92" height="32" viewBox="0 0 92 32" fill="none" xmlns="http://www.w3.org/2000/svg">
<path d="M16.3601 20.7515V25.0182H0V0.581818H4.61933V20.7515H16.3601Z" fill="white"/>
<path d="M18.9423 25.0182V11.7826H23.5616V25.0182H18.9423Z" fill="#10B981"/>
<path d="M26.3025 25.0182V5.2459H30.9218V25.0182H26.3025Z" fill="#10B981"/>
<path d="M33.4059 25.0182V0H38.0253V25.0182H33.4059Z" fill="#10B981"/>
<path d="M45.1717 6.01212L49.714 18.6182L54.2564 6.01212H59.0682L49.6755 32H44.8637L47.3274 25.2897L40.3599 6.01212H45.1717Z" fill="white"/>
<path d="M21.2518 4.9928C19.866 4.9928 18.7112 6.15643 18.7112 7.5528C18.7112 8.94916 19.866 10.1128 21.2518 10.1128C22.6376 10.1128 23.754 8.94916 23.754 7.5528C23.754 6.15643 22.6376 4.9928 21.2518 4.9928Z" fill="white"/>
<path d="M71.6245 15.2239H77.0795L74.352 7.55327L71.6245 15.2239ZM78.6161 19.5289H70.0879L68.244 24.6557H63.25L72.0471 0H76.657L85.4541 24.6557H80.4601L78.6161 19.5289Z" fill="white"/>
<path d="M87.3902 24.6557V0H92V24.6557H87.3902Z" fill="white"/>
</svg>
